<svg width="58" height="58" viewBox="0 0 58 58" fill="none" xmlns="http://www.w3.org/2000/svg">
<g clip-path="url(#clip0_402_140)" filter="url(#filter0_d_402_140)">
<path d="M5.55499 33.6956C9.08732 43.2155 18.2509 50 29 50C39.7491 50 48.9127 43.2155 52.445 33.6956L29 31.5218L5.55499 33.6956Z" fill="#FFDA44"/>
<path d="M29 0C18.2509 0 9.08732 6.78438 5.55499 16.3044L29 18.4782L52.445 16.3043C48.9127 6.78437 39.7491 0 29 0Z" fill="#050505"/>
<path d="M5.55498 16.3044C4.5501 19.0127 4 21.942 4 25C4 28.058 4.5501 30.9873 5.55498 33.6956H52.4451C53.45 30.9873 54 28.058 54 25C54 21.942 53.45 19.0127 52.445 16.3044H5.55498Z" fill="#D80027"/>
</g>
<defs>
<filter id="filter0_d_402_140" x="0" y="0" width="58" height="58" filterUnits="userSpaceOnUse" color-interpolation-filters="sRGB">
<feFlood flood-opacity="0" result="BackgroundImageFix"/>
<feColorMatrix in="SourceAlpha" type="matrix" values="0 0 0 0 0 0 0 0 0 0 0 0 0 0 0 0 0 0 127 0" result="hardAlpha"/>
<feOffset dy="4"/>
<feGaussianBlur stdDeviation="2"/>
<feComposite in2="hardAlpha" operator="out"/>
<feColorMatrix type="matrix" values="0 0 0 0 0 0 0 0 0 0 0 0 0 0 0 0 0 0 0.25 0"/>
<feBlend mode="normal" in2="BackgroundImageFix" result="effect1_dropShadow_402_140"/>
<feBlend mode="normal" in="SourceGraphic" in2="effect1_dropShadow_402_140" result="shape"/>
</filter>
<clipPath id="clip0_402_140">
<rect width="50" height="50" fill="white" transform="translate(4)"/>
</clipPath>
</defs>
</svg>
