<svg width="58" height="58" viewBox="0 0 58 58" fill="none" xmlns="http://www.w3.org/2000/svg">
<g clip-path="url(#clip0_402_140)" filter="url(#filter0_d_402_140)">
<path d="M54 25C54 21.942 53.4499 19.0126 52.445 16.3044L29 15.2174L5.55498 16.3043C4.5501 19.0126 4 21.942 4 25C4 28.058 4.5501 30.9874 5.55498 33.6956L29 34.7826L52.445 33.6957C53.4499 30.9874 54 28.058 54 25Z" fill="#F0F0F0"/>
<path d="M29 50C39.7491 50 48.9127 43.2156 52.445 33.6956H5.55499C9.08732 43.2156 18.2509 50 29 50Z" fill="#0052B4"/>
<path d="M5.55499 16.3044H52.4451C48.9127 6.78437 39.7491 0 29 0C18.2509 0 9.08732 6.78437 5.55499 16.3044V16.3044Z" fill="#D80027"/>
<path d="M35.5217 17.3914H31.1739L31.8986 11.9565L34.797 9.78259L37.6956 11.9565V16.3044L35.5217 17.3914Z" fill="#338AF3"/>
<path d="M22.4782 17.3914H26.8261L26.1014 11.9565L23.2028 9.78259L20.3044 11.9565V16.3044L22.4782 17.3914Z" fill="#338AF3"/>
<path d="M31.8986 17.3914H26.1014V11.9565L29 9.78259L31.8986 11.9565V17.3914Z" fill="#0052B4"/>
<path d="M20.3044 16.3045V28.261C20.3044 31.1079 21.6796 33.6398 23.8007 35.227L25.3224 34.8462L27.2428 36.778C27.8106 36.895 28.3982 36.9567 29.0001 36.9567C29.5987 36.9567 30.1834 36.8958 30.7482 36.78L32.9403 34.9548L34.1993 35.2235C36.3195 33.6363 37.6957 31.1071 37.6957 28.261V16.3045H20.3044Z" fill="#F0F0F0"/>
<path d="M20.3044 16.3044H23.7826V19.7826H20.3044V16.3044Z" fill="#D80027"/>
<path d="M27.2608 16.3044H30.739V19.7826H27.2608V16.3044Z" fill="#D80027"/>
<path d="M34.2173 16.3044H37.6956V19.7826H34.2173V16.3044Z" fill="#D80027"/>
<path d="M23.7826 19.7826H27.2608V23.2608H23.7826V19.7826Z" fill="#D80027"/>
<path d="M30.7391 19.7826H34.2174V23.2608H30.7391V19.7826Z" fill="#D80027"/>
<path d="M20.3044 23.2598H23.7826V26.738H20.3044V23.2598Z" fill="#D80027"/>
<path d="M23.7826 26.7381H27.2608V30.2163H23.7826V26.7381Z" fill="#D80027"/>
<path d="M27.2608 23.2598H30.739V26.738H27.2608V23.2598Z" fill="#D80027"/>
<path d="M34.2173 23.2598H37.6956V26.738H34.2173V23.2598Z" fill="#D80027"/>
<path d="M30.7391 26.7381H34.2174V30.2163H30.7391V26.7381Z" fill="#D80027"/>
<path d="M27.2608 30.2163H30.739V33.6945H27.2608V30.2163Z" fill="#D80027"/>
<path d="M23.7826 30.2166H20.5288C20.8272 31.5096 21.414 32.6927 22.2185 33.6948H23.7826V30.2166Z" fill="#D80027"/>
<path d="M34.2173 33.6949H35.7814C36.5861 32.6928 37.1726 31.5095 37.4711 30.2167H34.2173V33.6949Z" fill="#D80027"/>
<path d="M23.7826 33.6949V35.2126C24.7942 35.9738 25.9764 36.5196 27.2608 36.7815V33.6949H23.7826Z" fill="#D80027"/>
<path d="M30.7391 33.6949V36.7815C32.0236 36.5198 33.2057 35.9738 34.2174 35.2126V33.6949H30.7391Z" fill="#D80027"/>
</g>
<defs>
<filter id="filter0_d_402_140" x="0" y="0" width="58" height="58" filterUnits="userSpaceOnUse" color-interpolation-filters="sRGB">
<feFlood flood-opacity="0" result="BackgroundImageFix"/>
<feColorMatrix in="SourceAlpha" type="matrix" values="0 0 0 0 0 0 0 0 0 0 0 0 0 0 0 0 0 0 127 0" result="hardAlpha"/>
<feOffset dy="4"/>
<feGaussianBlur stdDeviation="2"/>
<feComposite in2="hardAlpha" operator="out"/>
<feColorMatrix type="matrix" values="0 0 0 0 0 0 0 0 0 0 0 0 0 0 0 0 0 0 0.25 0"/>
<feBlend mode="normal" in2="BackgroundImageFix" result="effect1_dropShadow_402_140"/>
<feBlend mode="normal" in="SourceGraphic" in2="effect1_dropShadow_402_140" result="shape"/>
</filter>
<clipPath id="clip0_402_140">
<rect width="50" height="50" fill="white" transform="translate(4)"/>
</clipPath>
</defs>
</svg>
