<svg width="58" height="58" viewBox="0 0 58 58" fill="none" xmlns="http://www.w3.org/2000/svg">
<g clip-path="url(#clip0_402_140)" filter="url(#filter0_d_402_140)">
<path d="M29 50C42.8071 50 54 38.8071 54 25C54 11.1929 42.8071 0 29 0C15.1929 0 4 11.1929 4 25C4 38.8071 15.1929 50 29 50Z" fill="#D80027"/>
<path d="M43.7742 20.5166H32.4877L29 9.78259L25.5123 20.5166H14.2258L23.3567 27.1506L19.8689 37.8848L29 31.2508L38.131 37.8849L34.6432 27.1507L43.7742 20.5166ZM25.9123 26.3202L27.0917 22.6904H30.9082L32.0877 26.3202V26.3203L29 28.5635L25.9124 26.3203L25.9123 26.3202ZM30.2019 20.5166H27.7981L29 16.8174L30.2019 20.5166ZM33.9368 24.9767L33.1939 22.6905H37.0835L33.9368 24.9767ZM24.8059 22.6905L24.0631 24.9767L20.9163 22.6905H24.8059ZM24.004 32.1934L25.2059 28.4943L27.1508 29.9072L24.004 32.1934ZM30.8492 29.9073L32.794 28.4944L33.996 32.1935L30.8492 29.9073Z" fill="#006233"/>
</g>
<defs>
<filter id="filter0_d_402_140" x="0" y="0" width="58" height="58" filterUnits="userSpaceOnUse" color-interpolation-filters="sRGB">
<feFlood flood-opacity="0" result="BackgroundImageFix"/>
<feColorMatrix in="SourceAlpha" type="matrix" values="0 0 0 0 0 0 0 0 0 0 0 0 0 0 0 0 0 0 127 0" result="hardAlpha"/>
<feOffset dy="4"/>
<feGaussianBlur stdDeviation="2"/>
<feComposite in2="hardAlpha" operator="out"/>
<feColorMatrix type="matrix" values="0 0 0 0 0 0 0 0 0 0 0 0 0 0 0 0 0 0 0.25 0"/>
<feBlend mode="normal" in2="BackgroundImageFix" result="effect1_dropShadow_402_140"/>
<feBlend mode="normal" in="SourceGraphic" in2="effect1_dropShadow_402_140" result="shape"/>
</filter>
<clipPath id="clip0_402_140">
<rect width="50" height="50" fill="white" transform="translate(4)"/>
</clipPath>
</defs>
</svg>
